<?xml version="1.0" standalone="no"?>
<!DOCTYPE svg PUBLIC "-//W3C//DTD SVG 20010904//EN"
 "http://www.w3.org/TR/2001/REC-SVG-20010904/DTD/svg10.dtd">
<svg version="1.0" xmlns="http://www.w3.org/2000/svg"
 width="500.000000pt" height="500.000000pt" viewBox="0 0 500.000000 500.000000"
 preserveAspectRatio="xMidYMid meet">
<metadata>
Created by potrace 1.15, written by Peter Selinger 2001-2017
</metadata>
<g transform="translate(0.000000,500.000000) scale(0.100000,-0.100000)"
fill="#000000" stroke="none">
<path d="M1273 3842 c-689 -543 -1252 -991 -1253 -995 0 -12 330 -402 344
-404 6 -2 69 42 140 97 71 55 131 98 132 97 10 -9 209 -1164 258 -1492 38
-252 66 -479 66 -535 0 -26 3 -55 6 -64 6 -15 153 -16 1563 -16 l1557 0 13
133 c16 180 60 480 136 932 66 397 176 1017 181 1024 2 2 43 -29 92 -68 50
-39 92 -71 95 -71 10 0 368 403 365 411 -5 13 -2422 1939 -2433 1938 -5 0
-573 -444 -1262 -987z m1349 -673 c29 -6 91 -29 136 -51 156 -74 279 -224 322
-393 37 -145 23 -269 -46 -412 -59 -124 -148 -214 -266 -273 -186 -91 -360
-91 -546 0 -118 59 -207 149 -266 273 -70 146 -84 265 -46 411 28 112 73 189
160 277 81 82 182 140 282 165 67 16 201 17 270 3z"/>
</g>
</svg>
